<svg xmlns="http://www.w3.org/2000/svg" xmlns:xlink="http://www.w3.org/1999/xlink" width="529" zoomAndPan="magnify" viewBox="0 0 396.75 396.749985" height="529" preserveAspectRatio="xMidYMid meet" version="1.0"><defs><clipPath id="0ca51f0952"><path d="M 0 0 L 396.5 0 L 396.5 396.5 L 0 396.5 Z M 0 0 " clip-rule="nonzero"/></clipPath><clipPath id="b5d7939004"><path d="M 0 0 L 396.398438 0 L 396.398438 396.398438 L 0 396.398438 Z M 0 0 " clip-rule="nonzero"/></clipPath><clipPath id="4b9b09ad67"><path d="M 66.316406 97 L 330 97 L 330 386.6875 L 66.316406 386.6875 Z M 66.316406 97 " clip-rule="nonzero"/></clipPath><clipPath id="96409f1a9a"><rect x="0" width="397" y="0" height="397"/></clipPath></defs><g clip-path="url(#0ca51f0952)"><path fill="#ffffff" d="M 0 0 L 396.5 0 L 396.5 396.5 L 0 396.5 Z M 0 0 " fill-opacity="1" fill-rule="nonzero"/><g><g clip-path="url(#96409f1a9a)"><g clip-path="url(#b5d7939004)"><path fill="#ffffff" d="M 0 0 L 396.398438 0 L 396.398438 396.398438 L 0 396.398438 Z M 0 0 " fill-opacity="1" fill-rule="nonzero"/></g><g clip-path="url(#4b9b09ad67)"><path fill="#1e293b" d="M 279.722656 242.609375 C 279.789062 229.089844 278.460938 215.609375 275.757812 202.367188 C 273.378906 190.566406 268.976562 179.28125 262.726562 168.992188 C 256.5 159.511719 247.949219 151.789062 237.894531 146.539062 C 213.855469 135.753906 186.394531 135.5 162.164062 145.835938 C 152.054688 150.730469 143.328125 158.09375 136.804688 167.234375 C 129.742188 177.066406 124.6875 188.199219 121.921875 199.988281 C 118.578125 213.558594 116.921875 227.488281 116.992188 241.464844 C 116.910156 255.066406 118.265625 268.644531 121.042969 281.964844 C 123.320312 293.722656 127.832031 304.933594 134.339844 314.988281 C 140.539062 324.433594 149.0625 332.132812 159.082031 337.351562 C 171.164062 343.210938 184.496094 346.042969 197.917969 345.632812 C 210.597656 345.921875 223.179688 343.332031 234.722656 338.058594 C 244.851562 333.230469 253.621094 325.96875 260.261719 316.925781 C 267.234375 307.082031 272.261719 295.996094 275.054688 284.257812 C 278.257812 270.609375 279.824219 256.625 279.722656 242.609375 M 329.5625 239.261719 C 329.640625 259.320312 326.671875 279.273438 320.753906 298.433594 C 315.578125 315.4375 306.972656 331.199219 295.484375 344.75 C 284.070312 358.046875 269.71875 368.507812 253.566406 375.304688 C 235.011719 382.84375 215.121094 386.550781 195.097656 386.222656 C 175.867188 386.574219 156.75 383.292969 138.742188 376.539062 C 123.320312 370.621094 109.566406 361.039062 98.675781 348.625 C 87.527344 335.671875 79.355469 320.429688 74.722656 303.980469 C 69.21875 284.660156 66.578125 264.628906 66.886719 244.542969 C 66.710938 224.609375 69.492188 204.753906 75.164062 185.636719 C 80.183594 168.554688 88.734375 152.710938 100.261719 139.144531 C 111.609375 125.882812 125.945312 115.5 142.085938 108.851562 C 160.640625 101.226562 180.585938 97.539062 200.644531 98.023438 C 219.851562 97.546875 238.957031 100.804688 256.914062 107.621094 C 272.359375 113.589844 286.132812 123.199219 297.070312 135.621094 C 308.46875 148.75 316.828125 164.238281 321.546875 180.96875 C 327.085938 200.164062 329.78125 220.074219 329.5625 240.054688 " fill-opacity="1" fill-rule="evenodd"/></g><path fill="#1e293b" d="M 125.894531 51.304688 C 115.582031 51.304688 115.761719 36.757812 115.761719 30.855469 C 115.761719 24.949219 115.761719 10.40625 125.894531 10.40625 L 276.882812 10.40625 C 287.195312 10.40625 287.195312 24.507812 287.105469 30.855469 C 287.019531 37.199219 287.105469 51.390625 276.882812 51.304688 Z M 125.894531 51.304688 " fill-opacity="1" fill-rule="evenodd"/></g></g></g></svg>