<svg xmlns="http://www.w3.org/2000/svg" xmlns:xlink="http://www.w3.org/1999/xlink" width="317" zoomAndPan="magnify" viewBox="0 0 237.75 30.750001" height="41" preserveAspectRatio="xMidYMid meet" version="1.0"><defs><clipPath id="2532962a80"><path d="M 0.835938 0 L 236.667969 0 L 236.667969 30.503906 L 0.835938 30.503906 Z M 0.835938 0 " clip-rule="nonzero"/></clipPath><clipPath id="3c6057bbf4"><path d="M 123 0.359375 L 126 0.359375 L 126 30 L 123 30 Z M 123 0.359375 " clip-rule="nonzero"/></clipPath><clipPath id="e32e89e0c0"><path d="M 18.863281 7 L 30 7 L 30 24 L 18.863281 24 Z M 18.863281 7 " clip-rule="nonzero"/></clipPath><clipPath id="febf52bfc3"><path d="M 203 7 L 213.035156 7 L 213.035156 25 L 203 25 Z M 203 7 " clip-rule="nonzero"/></clipPath></defs><g clip-path="url(#2532962a80)"><path fill="#ffffff" d="M 0.835938 0 L 236.667969 0 L 236.667969 30.503906 L 0.835938 30.503906 Z M 0.835938 0 " fill-opacity="1" fill-rule="nonzero"/><path fill="#ffffff" d="M 0.835938 0 L 236.667969 0 L 236.667969 30.503906 L 0.835938 30.503906 Z M 0.835938 0 " fill-opacity="1" fill-rule="nonzero"/></g><path fill="#1e293b" d="M 110.867188 9.417969 L 111.15625 9.417969 L 111.15625 7.417969 L 111.828125 7.417969 L 111.828125 7.175781 L 110.226562 7.175781 L 110.226562 7.417969 L 110.867188 7.417969 Z M 110.867188 9.417969 " fill-opacity="1" fill-rule="evenodd"/><path fill="#1e293b" d="M 112.386719 8.46875 C 112.386719 8.296875 112.386719 8.105469 112.40625 7.917969 C 112.40625 7.753906 112.421875 7.589844 112.421875 7.464844 C 112.441406 7.527344 112.457031 7.582031 112.476562 7.644531 C 112.496094 7.691406 112.503906 7.746094 112.519531 7.789062 C 112.566406 7.96875 112.621094 8.152344 112.691406 8.332031 L 113.050781 9.417969 L 113.257812 9.417969 L 113.640625 8.332031 C 113.714844 8.152344 113.777344 7.96875 113.832031 7.808594 C 113.867188 7.691406 113.902344 7.582031 113.9375 7.484375 C 113.9375 7.753906 113.9375 8.140625 113.964844 8.449219 L 114.027344 9.417969 L 114.296875 9.417969 L 114.144531 7.183594 L 113.785156 7.183594 L 113.398438 8.269531 C 113.308594 8.539062 113.21875 8.8125 113.15625 9.019531 C 113.132812 8.8125 113.058594 8.601562 112.988281 8.378906 C 112.988281 8.378906 112.988281 8.367188 112.988281 8.367188 C 112.988281 8.367188 112.96875 8.296875 112.953125 8.261719 L 112.566406 7.175781 L 112.207031 7.175781 L 112.054688 9.40625 L 112.324219 9.40625 L 112.386719 8.441406 Z M 112.386719 8.46875 " fill-opacity="1" fill-rule="evenodd"/><g clip-path="url(#3c6057bbf4)"><path fill="#1e293b" d="M 124.246094 0.542969 C 123.800781 0.542969 123.445312 0.894531 123.445312 1.332031 L 123.445312 29.164062 C 123.445312 29.605469 123.800781 29.957031 124.246094 29.957031 C 124.691406 29.957031 125.046875 29.605469 125.046875 29.164062 L 125.046875 1.332031 C 125.046875 0.894531 124.691406 0.542969 124.246094 0.542969 Z M 124.246094 0.542969 " fill-opacity="1" fill-rule="evenodd"/></g><path fill="#1e293b" d="M 36.078125 23.3125 C 36.796875 23.582031 37.625 23.734375 38.585938 23.734375 C 39.550781 23.734375 40.441406 23.554688 41.1875 23.257812 C 41.933594 22.925781 42.527344 22.5 43.039062 21.933594 C 43.542969 21.367188 43.902344 20.671875 44.144531 19.914062 C 44.414062 19.105469 44.53125 18.257812 44.53125 17.328125 C 44.53125 16.398438 44.414062 15.488281 44.171875 14.742188 C 43.929688 13.957031 43.578125 13.328125 43.101562 12.785156 C 42.652344 12.273438 42.058594 11.847656 41.339844 11.578125 C 40.621094 11.308594 39.792969 11.15625 38.832031 11.15625 C 37.867188 11.15625 36.976562 11.335938 36.230469 11.632812 C 35.511719 11.929688 34.890625 12.378906 34.378906 12.929688 C 33.902344 13.5 33.542969 14.191406 33.273438 14.949219 C 33.03125 15.761719 32.914062 16.605469 32.914062 17.535156 C 32.914062 18.464844 33.03125 19.375 33.273438 20.160156 C 33.480469 20.90625 33.839844 21.546875 34.316406 22.085938 C 34.792969 22.628906 35.386719 23.050781 36.078125 23.320312 Z M 35.332031 15.605469 C 35.484375 15.066406 35.691406 14.578125 35.988281 14.164062 C 36.285156 13.777344 36.671875 13.472656 37.121094 13.226562 C 37.570312 13.019531 38.136719 12.894531 38.757812 12.894531 C 39.441406 12.894531 40.007812 13.011719 40.457031 13.253906 C 40.933594 13.5 41.292969 13.824219 41.566406 14.28125 C 41.835938 14.707031 42.015625 15.183594 42.132812 15.722656 C 42.25 16.265625 42.3125 16.839844 42.3125 17.472656 C 42.3125 18.101562 42.25 18.734375 42.105469 19.273438 C 41.953125 19.816406 41.746094 20.300781 41.449219 20.691406 C 41.152344 21.078125 40.792969 21.410156 40.378906 21.652344 C 39.902344 21.863281 39.359375 21.988281 38.742188 21.988281 C 38.058594 21.988281 37.453125 21.871094 37.015625 21.628906 C 36.539062 21.355469 36.175781 21.058594 35.90625 20.636719 C 35.609375 20.210938 35.429688 19.734375 35.3125 19.195312 C 35.195312 18.625 35.132812 18.050781 35.132812 17.417969 C 35.132812 16.789062 35.195312 16.15625 35.339844 15.617188 Z M 35.332031 15.605469 " fill-opacity="1" fill-rule="evenodd"/><path fill="#1e293b" d="M 45.261719 8.859375 C 45.289062 8.921875 45.328125 8.976562 45.378906 9.011719 C 45.445312 9.039062 45.496094 9.078125 45.5625 9.078125 L 50.289062 9.078125 L 50.289062 23.367188 C 50.289062 23.429688 50.316406 23.484375 50.351562 23.546875 C 50.378906 23.609375 50.441406 23.636719 50.535156 23.664062 C 50.625 23.691406 50.742188 23.726562 50.894531 23.753906 C 51.046875 23.78125 51.226562 23.78125 51.4375 23.78125 C 51.644531 23.78125 51.824219 23.78125 51.976562 23.753906 C 52.09375 23.726562 52.222656 23.691406 52.3125 23.664062 C 52.402344 23.636719 52.464844 23.601562 52.492188 23.546875 C 52.519531 23.484375 52.554688 23.429688 52.554688 23.367188 L 52.554688 9.105469 L 57.257812 9.105469 C 57.320312 9.105469 57.375 9.078125 57.4375 9.039062 C 57.5 9.011719 57.554688 8.949219 57.589844 8.886719 C 57.617188 8.796875 57.652344 8.707031 57.679688 8.589844 C 57.707031 8.472656 57.707031 8.320312 57.707031 8.167969 C 57.707031 8.011719 57.707031 7.867188 57.679688 7.742188 C 57.652344 7.625 57.617188 7.5 57.589844 7.445312 C 57.582031 7.425781 57.574219 7.417969 57.5625 7.402344 C 57.519531 7.335938 57.492188 7.292969 57.445312 7.265625 L 57.265625 7.175781 L 45.625 7.175781 C 45.5625 7.175781 45.507812 7.203125 45.445312 7.238281 C 45.425781 7.257812 45.417969 7.265625 45.398438 7.285156 C 45.351562 7.320312 45.316406 7.355469 45.289062 7.417969 C 45.261719 7.480469 45.226562 7.597656 45.199219 7.714844 C 45.171875 7.832031 45.171875 7.984375 45.171875 8.140625 C 45.171875 8.320312 45.171875 8.4375 45.199219 8.5625 C 45.226562 8.679688 45.261719 8.804688 45.289062 8.859375 Z M 45.261719 8.859375 " fill-opacity="1" fill-rule="evenodd"/><g clip-path="url(#e32e89e0c0)"><path fill="#1e293b" d="M 21.5 23.441406 C 22.09375 23.773438 22.8125 23.917969 23.675781 23.917969 C 24.453125 23.917969 25.171875 23.738281 25.828125 23.378906 C 26.488281 23.019531 27.117188 22.503906 27.738281 21.847656 L 27.738281 23.351562 C 27.738281 23.414062 27.765625 23.46875 27.800781 23.53125 C 27.828125 23.59375 27.890625 23.648438 27.980469 23.683594 C 28.070312 23.710938 28.160156 23.746094 28.277344 23.746094 C 28.394531 23.773438 28.546875 23.773438 28.726562 23.773438 C 28.910156 23.773438 29.0625 23.773438 29.179688 23.746094 C 29.234375 23.730469 29.277344 23.730469 29.324219 23.71875 C 29.375 23.71875 29.421875 23.703125 29.476562 23.683594 C 29.539062 23.65625 29.59375 23.621094 29.628906 23.566406 C 29.628906 23.539062 29.628906 23.503906 29.648438 23.476562 C 29.648438 23.449219 29.664062 23.414062 29.664062 23.386719 L 29.664062 7.472656 C 29.664062 7.40625 29.636719 7.355469 29.601562 7.289062 C 29.574219 7.226562 29.511719 7.199219 29.421875 7.171875 C 29.359375 7.148438 29.242188 7.109375 29.089844 7.109375 C 28.933594 7.082031 28.792969 7.082031 28.546875 7.082031 C 28.339844 7.082031 28.160156 7.082031 28.042969 7.109375 C 27.925781 7.109375 27.800781 7.136719 27.746094 7.171875 C 27.65625 7.199219 27.59375 7.265625 27.566406 7.289062 C 27.539062 7.355469 27.503906 7.40625 27.503906 7.472656 L 27.503906 13.089844 C 26.964844 12.519531 26.398438 12.097656 25.828125 11.792969 C 25.261719 11.496094 24.667969 11.34375 23.976562 11.34375 C 23.164062 11.34375 22.425781 11.496094 21.796875 11.792969 C 21.164062 12.089844 20.660156 12.539062 20.246094 13.089844 C 19.832031 13.65625 19.5 14.320312 19.292969 15.132812 C 19.085938 15.914062 18.960938 16.816406 18.960938 17.777344 C 18.960938 18.625 19.050781 19.398438 19.230469 20.15625 C 19.382812 20.902344 19.679688 21.570312 20.039062 22.109375 C 20.425781 22.648438 20.90625 23.097656 21.5 23.433594 Z M 21.320312 15.953125 C 21.4375 15.4375 21.617188 14.960938 21.859375 14.539062 C 22.101562 14.113281 22.398438 13.78125 22.785156 13.546875 C 23.144531 13.277344 23.625 13.160156 24.164062 13.160156 C 24.757812 13.160156 25.296875 13.339844 25.839844 13.699219 C 26.378906 14.0625 26.945312 14.601562 27.511719 15.292969 L 27.511719 19.894531 C 27.1875 20.316406 26.855469 20.675781 26.558594 20.949219 C 26.261719 21.21875 25.964844 21.460938 25.695312 21.640625 C 25.425781 21.820312 25.152344 21.9375 24.882812 22.027344 C 24.613281 22.089844 24.34375 22.144531 24.082031 22.144531 C 23.515625 22.144531 23.066406 22.027344 22.679688 21.757812 C 22.316406 21.488281 22.019531 21.15625 21.777344 20.730469 C 21.535156 20.308594 21.390625 19.832031 21.300781 19.253906 C 21.210938 18.6875 21.183594 18.140625 21.183594 17.542969 C 21.183594 17.003906 21.246094 16.464844 21.335938 15.953125 Z M 21.320312 15.953125 " fill-opacity="1" fill-rule="evenodd"/></g><path fill="#1e293b" d="M 35.375 9.003906 L 42.027344 9.003906 C 42.472656 9.003906 42.472656 8.417969 42.472656 8.148438 L 42.472656 8.113281 C 42.472656 7.84375 42.472656 7.222656 42.027344 7.222656 L 35.375 7.222656 C 34.925781 7.222656 34.925781 7.820312 34.925781 8.113281 C 34.925781 8.378906 34.925781 9.003906 35.375 9.003906 Z M 35.375 9.003906 " fill-opacity="1" fill-rule="evenodd"/><path fill="#1e293b" d="M 60.503906 23.484375 C 60.683594 23.601562 60.863281 23.691406 61.070312 23.691406 L 69.105469 23.691406 C 69.167969 23.691406 69.222656 23.664062 69.285156 23.625 C 69.347656 23.601562 69.402344 23.535156 69.4375 23.445312 C 69.464844 23.382812 69.503906 23.265625 69.527344 23.148438 C 69.554688 23.03125 69.554688 22.90625 69.554688 22.761719 C 69.554688 22.582031 69.554688 22.464844 69.527344 22.335938 C 69.503906 22.21875 69.464844 22.128906 69.410156 22.039062 C 69.386719 21.976562 69.320312 21.921875 69.257812 21.886719 C 69.195312 21.859375 69.140625 21.824219 69.078125 21.824219 L 62.449219 21.824219 L 62.449219 15.953125 L 68.0625 15.953125 C 68.0625 15.953125 68.125 15.953125 68.152344 15.933594 C 68.175781 15.933594 68.214844 15.914062 68.242188 15.914062 C 68.277344 15.898438 68.304688 15.859375 68.332031 15.824219 C 68.347656 15.808594 68.367188 15.78125 68.386719 15.761719 C 68.410156 15.699219 68.449219 15.609375 68.476562 15.492188 C 68.503906 15.375 68.503906 15.246094 68.503906 15.105469 C 68.503906 14.960938 68.503906 14.804688 68.476562 14.679688 C 68.476562 14.644531 68.457031 14.617188 68.457031 14.589844 C 68.4375 14.515625 68.429688 14.453125 68.386719 14.410156 C 68.359375 14.34375 68.292969 14.292969 68.230469 14.253906 C 68.167969 14.230469 68.113281 14.191406 68.050781 14.191406 L 62.441406 14.191406 L 62.441406 9.015625 L 68.980469 9.015625 C 69.042969 9.015625 69.097656 8.988281 69.160156 8.953125 C 69.195312 8.933594 69.222656 8.898438 69.257812 8.863281 C 69.277344 8.84375 69.292969 8.816406 69.3125 8.796875 C 69.339844 8.734375 69.375 8.644531 69.402344 8.527344 C 69.429688 8.410156 69.429688 8.285156 69.429688 8.140625 C 69.429688 7.960938 69.429688 7.84375 69.402344 7.714844 C 69.375 7.597656 69.339844 7.507812 69.3125 7.417969 C 69.292969 7.355469 69.25 7.320312 69.203125 7.285156 C 69.1875 7.273438 69.175781 7.257812 69.160156 7.238281 C 69.097656 7.210938 69.042969 7.175781 68.980469 7.175781 L 61.0625 7.175781 C 60.855469 7.175781 60.675781 7.238281 60.492188 7.382812 C 60.3125 7.5 60.222656 7.742188 60.222656 8.078125 L 60.222656 22.777344 C 60.222656 23.113281 60.3125 23.347656 60.492188 23.472656 Z M 60.503906 23.484375 " fill-opacity="1" fill-rule="evenodd"/><path fill="#1e293b" d="M 81.546875 23.179688 C 81.570312 23.269531 81.609375 23.359375 81.660156 23.421875 C 81.726562 23.511719 81.777344 23.574219 81.90625 23.574219 C 81.96875 23.601562 82.085938 23.636719 82.238281 23.664062 C 82.355469 23.691406 82.5625 23.691406 82.777344 23.691406 C 82.929688 23.691406 83.066406 23.683594 83.183594 23.671875 C 83.246094 23.671875 83.300781 23.671875 83.34375 23.664062 C 83.363281 23.664062 83.382812 23.664062 83.398438 23.664062 C 83.550781 23.636719 83.667969 23.601562 83.757812 23.574219 C 83.847656 23.546875 83.914062 23.511719 83.9375 23.457031 C 83.964844 23.394531 83.964844 23.339844 83.964844 23.277344 C 83.964844 23.230469 83.949219 23.167969 83.929688 23.097656 C 83.929688 23.070312 83.914062 23.042969 83.902344 23.007812 C 83.875 22.917969 83.820312 22.765625 83.742188 22.558594 C 83.742188 22.558594 83.742188 22.546875 83.742188 22.546875 L 83.707031 22.46875 L 83.667969 22.386719 L 82.121094 18.753906 C 81.96875 18.328125 81.789062 17.96875 81.617188 17.636719 C 81.464844 17.304688 81.285156 17.035156 81.078125 16.765625 C 80.871094 16.496094 80.664062 16.289062 80.445312 16.109375 C 80.238281 15.929688 79.96875 15.773438 79.699219 15.65625 C 80.175781 15.476562 80.625 15.273438 81.015625 15.027344 C 81.402344 14.785156 81.761719 14.488281 82.03125 14.15625 C 82.328125 13.824219 82.535156 13.4375 82.6875 13.015625 C 82.839844 12.589844 82.929688 12.078125 82.929688 11.539062 C 82.929688 10.972656 82.867188 10.460938 82.6875 9.972656 C 82.535156 9.496094 82.273438 9.074219 81.941406 8.714844 C 81.582031 8.355469 81.195312 8.058594 80.691406 7.816406 C 80.210938 7.609375 79.644531 7.429688 78.988281 7.300781 C 78.878906 7.285156 78.753906 7.273438 78.621094 7.273438 C 78.503906 7.273438 78.375 7.257812 78.242188 7.25 C 77.972656 7.222656 77.609375 7.222656 77.195312 7.222656 L 73.640625 7.222656 C 73.433594 7.222656 73.253906 7.3125 73.074219 7.429688 C 72.894531 7.542969 72.804688 7.789062 72.804688 8.121094 L 72.804688 23.320312 C 72.804688 23.386719 72.832031 23.4375 72.867188 23.5 C 72.894531 23.566406 72.957031 23.59375 73.046875 23.617188 C 73.109375 23.644531 73.226562 23.683594 73.371094 23.707031 C 73.523438 23.734375 73.695312 23.734375 73.910156 23.734375 C 74.128906 23.734375 74.296875 23.734375 74.453125 23.707031 C 74.570312 23.683594 74.6875 23.644531 74.773438 23.617188 C 74.867188 23.59375 74.929688 23.554688 74.957031 23.5 C 74.984375 23.4375 75.019531 23.386719 75.019531 23.320312 L 75.019531 16.324219 L 76.511719 16.324219 C 77.015625 16.324219 77.46875 16.386719 77.828125 16.53125 C 78.214844 16.683594 78.511719 16.890625 78.78125 17.160156 C 79.050781 17.429688 79.285156 17.761719 79.464844 18.121094 C 79.671875 18.484375 79.851562 18.871094 80.03125 19.328125 L 81.554688 23.203125 Z M 78.710938 14.316406 C 78.257812 14.472656 77.78125 14.523438 77.1875 14.523438 L 77.1875 14.550781 L 75.035156 14.550781 L 75.035156 9.019531 L 76.917969 9.019531 C 77.367188 9.019531 77.726562 9.019531 77.988281 9.046875 C 78.257812 9.074219 78.492188 9.109375 78.710938 9.164062 C 79.394531 9.371094 79.871094 9.675781 80.175781 10.125 C 80.472656 10.550781 80.625 11.117188 80.625 11.746094 C 80.625 12.167969 80.535156 12.527344 80.417969 12.859375 C 80.300781 13.195312 80.058594 13.492188 79.789062 13.734375 C 79.492188 13.976562 79.132812 14.15625 78.71875 14.300781 Z M 78.710938 14.316406 " fill-opacity="1" fill-rule="evenodd"/><path fill="#1e293b" d="M 100.007812 23.707031 C 100.160156 23.734375 100.367188 23.734375 100.640625 23.734375 C 100.882812 23.734375 101.089844 23.734375 101.234375 23.707031 C 101.277344 23.707031 101.316406 23.691406 101.351562 23.691406 C 101.449219 23.671875 101.523438 23.664062 101.59375 23.617188 C 101.683594 23.589844 101.746094 23.527344 101.773438 23.464844 C 101.773438 23.449219 101.792969 23.429688 101.800781 23.410156 C 101.828125 23.367188 101.863281 23.3125 101.863281 23.25 L 103.242188 19.304688 L 110.210938 19.304688 L 111.640625 23.304688 C 111.667969 23.394531 111.703125 23.457031 111.757812 23.484375 C 111.785156 23.546875 111.851562 23.574219 111.941406 23.601562 C 112.03125 23.628906 112.148438 23.664062 112.300781 23.664062 C 112.363281 23.664062 112.445312 23.664062 112.535156 23.671875 C 112.660156 23.671875 112.804688 23.691406 112.957031 23.691406 C 113.226562 23.691406 113.4375 23.691406 113.589844 23.664062 C 113.742188 23.636719 113.859375 23.601562 113.921875 23.546875 C 113.984375 23.484375 114.011719 23.394531 114.011719 23.277344 C 114.039062 23.1875 114.011719 23.035156 113.921875 22.851562 L 108.308594 7.570312 C 108.28125 7.480469 108.21875 7.390625 108.15625 7.328125 C 108.089844 7.265625 108 7.210938 107.882812 7.171875 C 107.765625 7.148438 107.613281 7.109375 107.433594 7.109375 C 107.351562 7.109375 107.261719 7.109375 107.164062 7.101562 C 107.039062 7.101562 106.902344 7.082031 106.75 7.082031 C 106.476562 7.082031 106.269531 7.082031 106.117188 7.109375 C 105.9375 7.109375 105.820312 7.136719 105.703125 7.171875 C 105.695312 7.183594 105.675781 7.199219 105.667969 7.210938 C 105.660156 7.210938 105.648438 7.21875 105.640625 7.226562 C 105.632812 7.226562 105.613281 7.246094 105.605469 7.246094 C 105.605469 7.246094 105.53125 7.289062 105.496094 7.316406 C 105.433594 7.382812 105.40625 7.433594 105.34375 7.5625 L 99.730469 22.84375 C 99.730469 22.84375 99.710938 22.90625 99.703125 22.933594 C 99.65625 23.078125 99.613281 23.195312 99.613281 23.292969 C 99.613281 23.410156 99.640625 23.5 99.703125 23.566406 C 99.765625 23.628906 99.882812 23.65625 100.035156 23.683594 Z M 106.703125 9.363281 L 109.632812 17.574219 L 103.839844 17.574219 Z M 106.703125 9.363281 " fill-opacity="1" fill-rule="evenodd"/><path fill="#1e293b" d="M 95.839844 23.4375 C 95.902344 23.5 95.957031 23.554688 96.046875 23.589844 C 96.136719 23.617188 96.253906 23.65625 96.371094 23.683594 C 96.441406 23.683594 96.511719 23.683594 96.59375 23.691406 C 96.691406 23.691406 96.792969 23.707031 96.90625 23.707031 C 97.175781 23.707031 97.382812 23.707031 97.535156 23.683594 C 97.582031 23.683594 97.617188 23.664062 97.652344 23.664062 C 97.753906 23.644531 97.824219 23.636719 97.894531 23.589844 C 97.984375 23.566406 98.046875 23.527344 98.074219 23.476562 C 98.101562 23.410156 98.101562 23.359375 98.101562 23.296875 C 98.074219 23.269531 98.039062 23.179688 98.011719 23.023438 C 97.984375 22.925781 97.929688 22.78125 97.84375 22.574219 L 97.804688 22.484375 L 97.769531 22.394531 L 96.28125 18.761719 L 96.234375 18.644531 C 96.074219 18.277344 95.9375 17.953125 95.777344 17.644531 C 95.597656 17.3125 95.417969 17.015625 95.238281 16.773438 C 95.058594 16.53125 94.851562 16.296875 94.609375 16.117188 C 94.402344 15.9375 94.132812 15.785156 93.863281 15.667969 C 94.339844 15.488281 94.789062 15.308594 95.203125 15.039062 C 95.589844 14.792969 95.945312 14.496094 96.214844 14.164062 C 96.511719 13.832031 96.71875 13.445312 96.871094 13.023438 C 97.023438 12.574219 97.113281 12.085938 97.113281 11.546875 C 97.113281 10.980469 97.023438 10.46875 96.84375 9.984375 C 96.664062 9.503906 96.433594 9.082031 96.101562 8.722656 C 95.777344 8.363281 95.355469 8.066406 94.851562 7.824219 C 94.347656 7.582031 93.785156 7.402344 93.15625 7.3125 C 92.949219 7.285156 92.679688 7.25 92.410156 7.25 C 92.140625 7.222656 91.78125 7.222656 91.367188 7.222656 L 87.820312 7.222656 C 87.613281 7.222656 87.433594 7.285156 87.253906 7.429688 C 87.074219 7.542969 86.984375 7.789062 86.984375 8.121094 L 86.984375 23.320312 C 86.984375 23.386719 87.011719 23.4375 87.046875 23.5 C 87.074219 23.566406 87.136719 23.589844 87.226562 23.617188 C 87.316406 23.644531 87.433594 23.683594 87.550781 23.707031 C 87.703125 23.734375 87.882812 23.734375 88.089844 23.734375 C 88.296875 23.734375 88.476562 23.734375 88.628906 23.707031 C 88.78125 23.683594 88.898438 23.644531 88.960938 23.617188 C 89.050781 23.589844 89.113281 23.554688 89.140625 23.5 C 89.167969 23.4375 89.203125 23.386719 89.203125 23.320312 L 89.203125 16.324219 L 90.695312 16.324219 C 91.195312 16.324219 91.644531 16.386719 92.003906 16.53125 C 92.363281 16.683594 92.6875 16.890625 92.957031 17.160156 C 93.226562 17.429688 93.460938 17.726562 93.640625 18.121094 C 93.847656 18.484375 94.027344 18.90625 94.203125 19.328125 L 95.722656 23.203125 C 95.75 23.296875 95.785156 23.386719 95.839844 23.449219 Z M 92.859375 14.335938 C 92.445312 14.488281 91.933594 14.542969 91.339844 14.542969 L 89.167969 14.542969 L 89.167969 9.019531 L 91.042969 9.019531 C 91.492188 9.019531 91.851562 9.019531 92.113281 9.046875 C 92.382812 9.074219 92.617188 9.109375 92.832031 9.164062 C 93.515625 9.34375 94.027344 9.675781 94.285156 10.125 C 94.582031 10.574219 94.734375 11.117188 94.734375 11.746094 C 94.734375 12.132812 94.671875 12.527344 94.527344 12.859375 C 94.410156 13.222656 94.203125 13.519531 93.898438 13.761719 C 93.628906 14.003906 93.269531 14.210938 92.859375 14.328125 Z M 92.859375 14.335938 " fill-opacity="1" fill-rule="evenodd"/><path fill="#1e293b" d="M 134.378906 7.359375 L 143.742188 7.359375 L 143.742188 9.589844 L 137.089844 9.589844 L 137.089844 14.398438 L 142.308594 14.398438 L 142.308594 16.628906 L 137.089844 16.628906 L 137.089844 21.910156 L 143.847656 21.910156 L 143.847656 24.191406 L 134.378906 24.191406 Z M 134.378906 7.359375 " fill-opacity="1" fill-rule="evenodd"/><path fill="#1e293b" d="M 146.730469 7.359375 L 149.378906 7.359375 L 149.378906 17.824219 C 149.378906 18.777344 149.414062 19.46875 149.480469 19.910156 C 149.6875 21.441406 150.578125 22.207031 152.152344 22.207031 C 153.289062 22.207031 154.054688 21.777344 154.441406 20.902344 C 154.667969 20.40625 154.777344 19.363281 154.777344 17.769531 L 154.777344 7.359375 L 157.207031 7.359375 L 157.207031 17.625 C 157.207031 19.039062 157.144531 20.074219 157.027344 20.722656 C 156.566406 23.253906 154.882812 24.511719 151.972656 24.511719 C 149.902344 24.511719 148.460938 23.890625 147.621094 22.660156 C 147.226562 22.054688 146.957031 21.226562 146.832031 20.164062 C 146.765625 19.570312 146.730469 18.785156 146.730469 17.824219 Z M 146.730469 7.359375 " fill-opacity="1" fill-rule="evenodd"/><path fill="#1e293b" d="M 161.378906 7.359375 L 166.285156 7.359375 C 167.921875 7.359375 169.128906 7.683594 169.917969 8.328125 C 170.96875 9.195312 171.5 10.472656 171.5 12.152344 C 171.5 13.40625 171.183594 14.449219 170.566406 15.285156 C 170.207031 15.769531 169.683594 16.203125 168.984375 16.582031 L 172.074219 24.191406 L 169.144531 24.191406 L 166.601562 17.164062 L 164.066406 17.164062 L 164.066406 24.191406 L 161.371094 24.191406 L 161.371094 7.359375 Z M 164.074219 9.519531 L 164.074219 15.007812 L 166.144531 15.007812 C 167.015625 15.007812 167.671875 14.773438 168.113281 14.296875 C 168.585938 13.800781 168.832031 13.082031 168.832031 12.128906 C 168.832031 11.171875 168.542969 10.5 167.96875 10.023438 C 167.570312 9.6875 166.96875 9.527344 166.160156 9.527344 L 164.066406 9.527344 Z M 164.074219 9.519531 " fill-opacity="1" fill-rule="evenodd"/><path fill="#1e293b" d="M 180.710938 7.039062 C 181.65625 7.039062 182.519531 7.253906 183.3125 7.695312 C 185.429688 8.859375 186.484375 11.550781 186.484375 15.785156 C 186.484375 19.027344 185.828125 21.40625 184.523438 22.910156 C 183.574219 23.980469 182.289062 24.511719 180.636719 24.511719 C 178.988281 24.511719 177.703125 23.992188 176.753906 22.945312 C 175.402344 21.449219 174.726562 19.082031 174.726562 15.839844 C 174.726562 12.597656 175.402344 10.101562 176.753906 8.613281 C 177.703125 7.570312 179.027344 7.046875 180.710938 7.046875 Z M 180.648438 9.324219 C 179.972656 9.324219 179.414062 9.515625 178.980469 9.902344 C 178.035156 10.757812 177.566406 12.703125 177.566406 15.738281 C 177.566406 17.917969 177.808594 19.542969 178.296875 20.605469 C 178.78125 21.675781 179.546875 22.207031 180.59375 22.207031 C 181.261719 22.207031 181.808594 22.019531 182.222656 21.632812 C 183.171875 20.765625 183.636719 18.8125 183.636719 15.765625 C 183.636719 13.605469 183.394531 11.992188 182.917969 10.929688 C 182.429688 9.859375 181.675781 9.324219 180.636719 9.324219 Z M 180.648438 9.324219 " fill-opacity="1" fill-rule="evenodd"/><path fill="#1e293b" d="M 190.238281 7.359375 L 194.277344 7.359375 C 195.332031 7.359375 196.152344 7.421875 196.738281 7.546875 C 197.953125 7.808594 198.859375 8.429688 199.472656 9.398438 C 200.023438 10.28125 200.300781 11.304688 200.300781 12.492188 C 200.300781 13.546875 200.085938 14.488281 199.652344 15.324219 C 199.105469 16.40625 198.148438 17.105469 196.808594 17.429688 C 196.285156 17.558594 195.46875 17.621094 194.351562 17.621094 L 192.9375 17.621094 L 192.9375 24.191406 L 190.238281 24.191406 Z M 192.9375 9.515625 L 192.9375 15.378906 L 194.277344 15.378906 C 195.476562 15.378906 196.285156 15.171875 196.699219 14.75 C 197.214844 14.257812 197.464844 13.480469 197.464844 12.429688 C 197.464844 11.316406 197.152344 10.496094 196.511719 9.976562 C 196.222656 9.742188 195.855469 9.589844 195.394531 9.535156 C 195.222656 9.515625 194.847656 9.507812 194.277344 9.507812 L 192.9375 9.507812 Z M 192.9375 9.515625 " fill-opacity="1" fill-rule="evenodd"/><g clip-path="url(#febf52bfc3)"><path fill="#1e293b" d="M 203.550781 7.359375 L 212.910156 7.359375 L 212.910156 9.589844 L 206.257812 9.589844 L 206.257812 14.398438 L 211.480469 14.398438 L 211.480469 16.628906 L 206.257812 16.628906 L 206.257812 21.910156 L 213.019531 21.910156 L 213.019531 24.191406 L 203.550781 24.191406 Z M 203.550781 7.359375 " fill-opacity="1" fill-rule="evenodd"/></g></svg>